<svg width="100" height="108" viewBox="0 0 100 108" fill="none" xmlns="http://www.w3.org/2000/svg">
<path d="M51.5 2C51.5 1.17157 50.8284 0.5 50 0.5C49.1716 0.5 48.5 1.17157 48.5 2L51.5 2ZM48.5 2L48.5 104L51.5 104L51.5 2L48.5 2Z" fill="black"/>
<path d="M97.9877 57.2165C98.8161 57.2165 99.4877 56.545 99.4877 55.7166C99.4877 54.8881 98.8162 54.2165 97.9877 54.2165L97.9877 57.2165ZM53.0997 103.897C53.0458 90.3334 59.8492 78.6658 68.9704 70.3483C78.1233 62.0019 89.4037 57.2164 97.9877 57.2165L97.9877 54.2165C88.4598 54.2163 76.4902 59.4311 66.949 68.1316C57.3763 76.8608 50.0416 89.2866 50.0997 103.909L53.0997 103.897Z" fill="black"/>
<path d="M1.99998 57.2165C1.17156 57.2165 0.499972 56.545 0.499956 55.7166C0.49994 54.8881 1.1715 54.2165 1.99993 54.2165L1.99998 57.2165ZM46.888 103.897C46.9419 90.3334 40.1385 78.6658 31.0172 70.3483C21.8644 62.0019 10.584 57.2164 1.99998 57.2165L1.99993 54.2165C11.5279 54.2163 23.4975 59.4311 33.0387 68.1316C42.6114 76.8608 49.9461 89.2866 49.888 103.909L46.888 103.897Z" fill="black"/>
</svg>
